<svg xmlns="http://www.w3.org/2000/svg" xmlns:xlink="http://www.w3.org/1999/xlink" viewBox="0 0 200 112.5"><defs><style>.a,.d,.e,.f,.g,.h,.i,.j{fill:none;}.b{fill:#fff;}.c{clip-path:url(#a);}.d,.e,.f,.g,.h,.i,.j{stroke:#fff;stroke-miterlimit:10;}.d{stroke-width:2.18px;}.e{stroke-width:0.73px;}.f{stroke-width:0.48px;}.g{stroke-width:0.24px;}.h{stroke-width:0.85px;}.i{stroke-width:1.69px;}.j{stroke-width:0.6px;}</style><clipPath id="a"><rect class="a" x="109.01" y="53.46" width="32.43" height="19.91"/></clipPath></defs><circle class="b" cx="139.44" cy="30.76" r="3.69"/><g class="c"><path class="d" d="M140.23,52.88A15.2,15.2,0,1,1,110.8,53"/><path class="e" d="M137.27,53a12.39,12.39,0,0,1,.59,3.77,12.15,12.15,0,0,1-.88,4.57"/><path class="e" d="M135,64.68a12.33,12.33,0,0,1-20.44-2.33"/><path class="f" d="M118.83,65.59a11.09,11.09,0,0,1-3.68-12.71"/><path class="g" d="M122.24,67.35l-.15,0"/><path class="f" d="M128.83,67.35a11.11,11.11,0,0,1-6.59,0"/><path class="h" d="M134.79,58.67a9.46,9.46,0,0,1-14.92,5.66"/><path class="h" d="M134.2,53a9.4,9.4,0,0,1,.56,1.75"/><path class="h" d="M117.26,61.33a9.39,9.39,0,0,1-1.18-4.57,9.51,9.51,0,0,1,.83-3.88"/><path class="i" d="M129.07,53A5.17,5.17,0,1,1,122,53"/><circle class="b" cx="125.49" cy="56.8" r="0.74"/><path class="j" d="M132.19,53.38a7.55,7.55,0,0,1,.81,3.38,7.43,7.43,0,0,1-3.12,6.07"/></g><path class="b" d="M126.89,84.64h-3a25.3,25.3,0,0,0,.66-3.38,23.14,23.14,0,0,0-.66-8.67h3a28.28,28.28,0,0,0-.55,8.53A30.19,30.19,0,0,0,126.89,84.64Z"/><path class="b" d="M135.21,85.52a52.9,52.9,0,0,0-19.83.1c-1,.19-1.79.37-2.33.5h24.81C136.78,85.84,135.87,85.65,135.21,85.52Z"/><circle class="b" cx="125.4" cy="35.24" r="2.96"/><circle class="b" cx="119.23" cy="46.86" r="2.24"/><path class="b" d="M34.41,70.71l-2.85,2.34q-.49-.52-3.54-4T18.63,58.41l0-.2a12.14,12.14,0,0,0,2.3-1,11.3,11.3,0,0,0,2.41-1.65,7.39,7.39,0,0,0,1.47-1.91,6.29,6.29,0,0,0,.63-3,4.92,4.92,0,0,0-.93-3A5.23,5.23,0,0,0,22,45.73a9.92,9.92,0,0,0-2.78-.6c-1-.07-1.86-.11-2.68-.11l-1.25,0h-.64q0,4.32-.06,7.62c0,2.2,0,3.76,0,4.67q0,3.12,0,8.47t.05,6.72H10.92c0-.91,0-2.68.07-5.29s0-5.88,0-9.77V53.26c0-2,0-5.78-.11-11.19l2.27,0c1.36,0,2.62,0,3.77,0a32,32,0,0,1,3.84.22,13.84,13.84,0,0,1,3.64,1A8.12,8.12,0,0,1,28,46a7.28,7.28,0,0,1,1.32,4.35,7.64,7.64,0,0,1-2,5.38,17.58,17.58,0,0,1-3.76,3.19V59q3.12,3.65,6.84,7.52T34.41,70.71Z"/><path class="b" d="M57.05,60.17H40.6a10.06,10.06,0,0,0,1,4.43,8.28,8.28,0,0,0,3.07,3.33,10.11,10.11,0,0,0,3,1.26,16.91,16.91,0,0,0,4,.42c.86,0,1.66,0,2.38-.06l1.33-.09-.41,3c-.12,0-.53,0-1.21.08s-1.48.06-2.41.06a19.12,19.12,0,0,1-6.33-1,12.09,12.09,0,0,1-4.43-2.6,11.94,11.94,0,0,1-2.51-3.55,11,11,0,0,1-1-4.8A13.37,13.37,0,0,1,37.9,56a12.67,12.67,0,0,1,2.32-3.89,8.87,8.87,0,0,1,3.33-2.38,10.53,10.53,0,0,1,4.13-.85,10.38,10.38,0,0,1,3.75.64,7.67,7.67,0,0,1,2.84,1.93,9.73,9.73,0,0,1,2,3.59A16.87,16.87,0,0,1,57.05,60.17Zm-3.53-2.54A7.53,7.53,0,0,0,51.6,53.2a5.46,5.46,0,0,0-4.1-1.6,5.92,5.92,0,0,0-4.26,1.63,8.71,8.71,0,0,0-2.36,4.4Z"/><path class="b" d="M78.23,69.57,78,72.62H76.7a25.76,25.76,0,0,1-5.48-.56,17.27,17.27,0,0,1-4.57-1.65,11.33,11.33,0,0,1-4.3-4A10.25,10.25,0,0,1,60.8,60.9a9.34,9.34,0,0,1,1.41-5,11.69,11.69,0,0,1,3.69-3.75,16.08,16.08,0,0,1,4.9-2,25,25,0,0,1,5.9-.69h.94l.18,3.05h-.71a26.51,26.51,0,0,0-4.31.3,15.85,15.85,0,0,0-3.47,1,7.64,7.64,0,0,0-3.57,2.86,7.37,7.37,0,0,0-1.32,4.19,7.79,7.79,0,0,0,1.24,4.47A8.19,8.19,0,0,0,69,68.11a13.25,13.25,0,0,0,3.59,1.12,25,25,0,0,0,4.23.34h1.44Z"/><path class="b" d="M103.09,72.53H99.5c0-.46,0-1.83,0-4.11s0-3.79,0-4.52,0-1.95,0-3.49,0-2.66,0-3.37a6.2,6.2,0,0,0-1-3.76,4,4,0,0,0-3.23-1.14,9.74,9.74,0,0,0-3.32.78A29.57,29.57,0,0,0,87.71,55l.09,17.5H84.21c0-.6,0-3,.06-7.16s0-7.61,0-10.31q0-2.64,0-6.66c0-2.67,0-5.75-.08-9.22H87.8l-.09,12.94,0,0a34,34,0,0,1,5.32-2.52,11.33,11.33,0,0,1,3.55-.71,6.15,6.15,0,0,1,4.67,1.84,6.9,6.9,0,0,1,1.76,5q0,2.87,0,5c0,1.39,0,2.51,0,3.38,0,1.38,0,3,0,4.75S103.07,71.86,103.09,72.53Z"/><path class="b" d="M190.2,50.44q-4.44,9.78-9.34,20.78t-5.22,11.7l-3.14-1.16L177.2,72q-.18-.45-2.85-6.64t-6.51-14.79l3.4-1.47q2.5,6.32,5.1,12.5c1.72,4.11,2.64,6.28,2.73,6.49h0c.09-.15,1-2.17,2.59-6.05s3.43-8.17,5.37-12.85Z"/><path class="b" d="M162.29,64.52c-.27-4.95-2.4-9.79-3.5-14.38a61.79,61.79,0,0,1-1.44-11.86,2.32,2.32,0,0,1,.4-.78V31.82c-1.08-1.53-4.3-1.44-5.66,0L152,37.75a1.09,1.09,0,0,0,.51.44,61.81,61.81,0,0,1-1.18,12c-.43,2.61-3.31,10.7-3.48,14.56l.25,20.67c.2,1.11.64,1.59,1.19,1.79a40.14,40.14,0,0,0,12.33,0,3.14,3.14,0,0,0,1-2Zm-2.07,18.82a49.44,49.44,0,0,1-10.25,0V70.54a87.63,87.63,0,0,0,10.25,0Z"/></svg>